<svg width="207" height="59" viewBox="0 0 207 59" fill="none" xmlns="http://www.w3.org/2000/svg">
<path d="M37.6883 59L43.8786 53.492L39.0234 47.9229C42.1793 43.9449 44 38.5594 44 32.3782C44 18.5471 35.0179 9 21.9697 9C8.98207 9 0 18.6083 0 32.4394C0 46.2705 8.92138 55.8176 21.909 55.8176C25.9145 55.8176 29.5559 54.8996 32.651 53.2472L37.6883 59ZM33.6221 32.3782C33.6221 35.377 33.0759 37.9474 32.1048 40.0282L26.2786 33.4186L20.0883 38.9266L25.9752 45.6585C24.7614 46.0869 23.4869 46.2705 22.0303 46.2705C14.7476 46.2705 10.3779 41.0685 10.3779 32.3782C10.3779 23.7491 14.7476 18.5471 22.0303 18.5471C29.2524 18.5471 33.6221 23.7491 33.6221 32.3782Z" fill="black"/>
<path d="M73.9306 14.48V35.2C73.9306 42.72 70.9706 46.32 64.8106 46.32C59.3706 46.32 56.4106 43.28 56.4106 35.76V14.48H46.6506V39.2C46.6506 48.88 52.0106 55.04 61.1306 55.04C66.4106 55.04 71.5306 52.48 73.9306 48.72L74.6506 54H83.6906V14.48H73.9306Z" fill="black"/>
<path d="M105.87 55.04C116.19 55.04 123.39 49.84 125.07 41.2H116.03C114.91 44.96 111.39 47.04 106.03 47.04C99.55 47.04 95.87 43.52 95.15 36.56L124.91 36.48V33.52C124.91 21.2 117.39 13.28 105.55 13.28C93.95 13.28 85.87 21.84 85.87 34.24C85.87 46.48 94.11 55.04 105.87 55.04ZM105.63 21.28C111.47 21.28 115.23 24.88 115.23 30.32H95.39C96.35 24.4 99.87 21.28 105.63 21.28Z" fill="black"/>
<path d="M152.721 14.32C151.121 13.92 149.761 13.76 148.401 13.76C143.121 13.76 139.361 16.4 137.681 20.32L137.121 14.56H127.921V54H137.681V34.8C137.681 27.12 142.081 23.36 149.121 23.36H152.721V14.32Z" fill="black"/>
<path d="M159.408 12.56C162.608 12.56 165.248 9.92002 165.248 6.64001C165.248 3.36002 162.608 0.800018 159.408 0.800018C156.048 0.800018 153.408 3.36002 153.408 6.64001C153.408 9.92002 156.048 12.56 159.408 12.56ZM154.528 54H164.288V14.48H154.528V54Z" fill="black"/>
<path d="M187.251 55.04C197.571 55.04 204.771 49.84 206.451 41.2H197.411C196.291 44.96 192.771 47.04 187.411 47.04C180.931 47.04 177.251 43.52 176.531 36.56L206.291 36.48V33.52C206.291 21.2 198.771 13.28 186.931 13.28C175.331 13.28 167.251 21.84 167.251 34.24C167.251 46.48 175.491 55.04 187.251 55.04ZM187.011 21.28C192.851 21.28 196.611 24.88 196.611 30.32H176.771C177.731 24.4 181.251 21.28 187.011 21.28Z" fill="black"/>
<path d="M165.248 6.64001C165.248 9.92002 162.608 12.56 159.408 12.56C156.048 12.56 153.408 9.92002 153.408 6.64001C153.408 3.36002 156.048 0.800018 159.408 0.800018C162.608 0.800018 165.248 3.36002 165.248 6.64001Z" fill="black"/>
</svg>
