<svg width="220" height="65" viewBox="0 0 220 65" fill="none" xmlns="http://www.w3.org/2000/svg">
<path d="M49.4 64.4L55.96 58.56L49.72 51.6C54.28 46.32 56.84 39.12 56.84 30.72C56.84 12.88 45.16 0.480011 28.44 0.480011C11.72 0.480011 0.119995 12.96 0.119995 30.72C0.119995 48.56 11.64 60.96 28.36 60.96C33.88 60.96 38.84 59.6 43 57.2L49.4 64.4ZM46.04 30.72C46.04 35.84 44.84 40.24 42.68 43.6L34.92 34.88L28.44 40.72L36.2 49.44C33.88 50.56 31.32 51.12 28.44 51.12C17.72 51.12 10.84 43.2 10.84 30.72C10.84 18.24 17.72 10.32 28.44 10.32C39.16 10.32 46.04 18.24 46.04 30.72Z" fill="white"/>
<path d="M86.9306 20.48V41.2C86.9306 48.72 83.9706 52.32 77.8106 52.32C72.3706 52.32 69.4106 49.28 69.4106 41.76V20.48H59.6506V45.2C59.6506 54.88 65.0106 61.04 74.1306 61.04C79.4106 61.04 84.5306 58.48 86.9306 54.72L87.6506 60H96.6906V20.48H86.9306Z" fill="white"/>
<path d="M118.87 61.04C129.19 61.04 136.39 55.84 138.07 47.2H129.03C127.91 50.96 124.39 53.04 119.03 53.04C112.55 53.04 108.87 49.52 108.15 42.56L137.91 42.48V39.52C137.91 27.2 130.39 19.28 118.55 19.28C106.95 19.28 98.87 27.84 98.87 40.24C98.87 52.48 107.11 61.04 118.87 61.04ZM118.63 27.28C124.47 27.28 128.23 30.88 128.23 36.32H108.39C109.35 30.4 112.87 27.28 118.63 27.28Z" fill="white"/>
<path d="M165.721 20.32C164.121 19.92 162.761 19.76 161.401 19.76C156.121 19.76 152.361 22.4 150.681 26.32L150.121 20.56H140.921V60H150.681V40.8C150.681 33.12 155.081 29.36 162.121 29.36H165.721V20.32Z" fill="white"/>
<path d="M172.408 17.56C175.608 17.56 178.247 14.92 178.247 11.64C178.247 8.36001 175.608 5.80001 172.408 5.80001C169.048 5.80001 166.408 8.36001 166.408 11.64C166.408 14.92 169.048 17.56 172.408 17.56ZM167.527 60H177.287V20.48H167.527V60Z" fill="white"/>
<path d="M200.251 61.04C210.571 61.04 217.771 55.84 219.451 47.2H210.411C209.291 50.96 205.771 53.04 200.411 53.04C193.931 53.04 190.251 49.52 189.531 42.56L219.291 42.48V39.52C219.291 27.2 211.771 19.28 199.931 19.28C188.331 19.28 180.251 27.84 180.251 40.24C180.251 52.48 188.491 61.04 200.251 61.04ZM200.011 27.28C205.851 27.28 209.611 30.88 209.611 36.32H189.771C190.731 30.4 194.251 27.28 200.011 27.28Z" fill="white"/>
</svg>
